<svg height="512" width="512" viewBox="-4 -4 72 72" xmlns="http://www.w3.org/2000/svg">
  <path d="M19.7 7.5a41.2 41.2 0 00.8 4.5c.1.1.9-.5.9-.6l-.3-2.1a16.9 16.9 0 012.2.4V9a20.2 20.2 0 00-3.6-1.4zm19.5-.1A15.8 15.8 0 0036 9.5l.5.6c.2.1.3-.3 1.3-.9a20 20 0 013-1.3c.1 0-.1-.8-.4-1s0 0-1.2.5zm18.5 31c-3-.6-3.2-1.5-3.1-1.7s1.5-.4 4.7-4.6A15.4 15.4 0 0062 21.5c-.2-.5-1-.4-2.3.2a28 28 0 01-4 1.4c-.2 0 .2-.6 2-5s1.6-7.8 1.1-7.9-4.7 2-7.4 3a22.2 22.2 0 01-6.6 1.1c-.4-.1 2-11.2 1.9-11.5s-2.1-.5-7 1.2a37.9 37.9 0 00-9.2 5.1s-1-1.7-6-3.6a27.8 27.8 0 00-8.5-2c-.2 0 .1 1.7.5 4s.7 7 .7 7.1-1.2.2-4 .2-8.8-.3-9.3-.1S3.4 17 5.3 21A28 28 0 009.8 28l-3.8 3a23.1 23.1 0 00-4.3 5.4c-.1.3 1.3 1.2 4 1.5a22.3 22.3 0 015.5 1.5l-2.1 2.3C7.7 43 4 49.2 3.7 49.8s.5 1.5 1.2 1.5l9.9-.4c.5 0-1.5 6.5-1.6 6.7s1.3.6 4 .3a9.4 9.4 0 004.8-2.6 8.6 8.6 0 002.3 1.8 12.8 12.8 0 004.5 1.2L29 61c.1.2 1.2.3 1.7.3a10 10 0 011.6 0 2.1 2.1 0 001 0 5 5 0 011.5 0 1 1 0 001-.2v-3a7.3 7.3 0 001.6-.4l4.6-2.3a8.2 8.2 0 001.2 1 22.2 22.2 0 005.8 2c2.2.4 3.6-.5 3.7-1s.1-7.2 0-7.6.2-.3 4.3-2.7a11.6 11.6 0 005.3-7.4c0-.7-1.5-.6-4.6-1.3zm-23.5 22a3 3 0 01-1.5 0 3 3 0 00-1.5-.3c-.4 0-.7.3-.8.2a6.2 6.2 0 01-.2-2h2.4l1.6.1c0 .1.2 1.9 0 2zm8.3-8a11.4 11.4 0 01-1.3 1.2 15.7 15.7 0 00-2.5-1.6c-.2.1-.5.4-.4.6s2 1.5 2 1.6-1.2.9-1.3.8a26 26 0 00-2.5-2c-.2 0-.7.5-.6.6s2.4 1.7 2.2 1.8-1.6.8-1.8.7-2-2-2-2-.7.3-.6.5l1.5 1.8a31 31 0 01-8.2-.1c-3.7-.7-6.3-4.8-7.5-9.1s-1.2-13.7.1-18.8 3.6-11.2 11.6-11.2c4 0 8.8.2 12.6 6.8s3.4 11.9 2.4 17.8-2.7 9.5-3.7 10.6zm12.2-5.7c-3.5 1.8-4 2-4 2.3s.2 7.3 0 7.3a26 26 0 01-5-.9c-1.5-.5-2-1-2-1a21.2 21.2 0 002.7-4.6 11.7 11.7 0 00.8-3s4.6.3 5-3-1.8-3.7-2.4-3.8a6.2 6.2 0 00-1.4-.2s1.2-10.3-2.3-16-7.2-8.7-14.7-8.3-11.6 4.2-13.5 12-1.3 12-1.3 12-3.7.2-3.6 4.8 5 3.7 5 3.7a7 7 0 001 3.9l1.8 2.5s-5 1.9-5 1.6 1.3-4.5 1.1-5-1-1.4-1.3-1.4-9.7.4-9.8 0S8 46 10.1 43.1s3.2-3.8 3.2-4.1-1.5-2.2-4.7-2.6-4.5-.4-4.4-.6a33 33 0 015.3-5.4 7.7 7.7 0 002.6-2.2A35.4 35.4 0 017.6 22c-1.8-3.3-1.9-5.5-1.7-5.6.3-.3 13.4 0 13.5-.2S17.5 5 17.9 5a45.9 45.9 0 019 3.7c2.6 1.7 2.8 2.3 3.5 2.3s4-3.2 8.4-5 6-1.7 6-1.5L43 13c-.3 1.3-.4 2.7-.1 2.8a28 28 0 008.2-1c4-1 6.8-2.7 6.8-2.4a54.6 54.6 0 01-3.6 9.1c-1.2 1.9-1.7 3.4-1.4 3.6s1.6-.3 4.3-1.2 3-.9 3-.8A13.6 13.6 0 0158 31a32.9 32.9 0 01-5.6 5.8 4.2 4.2 0 002 2.6c1.2.6 5.7 1.2 5.7 1.5a12.6 12.6 0 01-5.4 6zm-6.2-5.3c.1-.1 2.4 0 2 2s-2.8 2.6-2.9 2.3a22.4 22.4 0 01.7-2.3c.3-1.2 0-1.7.2-2zm-31.3 4.9c-.1 0-2.4-.3-2.4-2a3.8 3.8 0 011.7-3 27 27 0 01.7 5zM32.5 25c7.3 0 9.3 1.3 9.6 1.3s.5-2 .4-2.4-3.7-2.2-10.2-2.2-9 1.5-9.4 1.6c-1.2.5-.7 3-.3 3.3S25 25 32.5 25zm-9.1-1c.2-.5 3.2-1.7 9.3-1.4s8.9 1.3 8.9 1.6.2.9 0 .9a29 29 0 00-9.2-1.1 43.2 43.2 0 00-8.9 1.3c-.3-.1-.2-1.2-.1-1.3zM43 33.4c.1-5.7-5-6.5-7.9-5.4s-4 5.5-1.6 8.7 9.3 2.3 9.5-3.3zM34.2 36c-2-2.6-1-6.2 1.4-7.1s6.5-.3 6.4 4.4-5.9 5.3-7.8 2.7zm-3.3-3.2c.2-5.2-4.6-6-7.1-5s-3.8 5-1.6 8 8.6 2.2 8.7-3zm-6.7-4.1c2-.9 6-.3 5.9 4s-5.4 5-7.2 2.6-.9-5.7 1.3-6.6zm2.8 4.2a1 1 0 00-1.5-1 1.1 1.1 0 00-.4 1.6A1 1 0 0027 33zm11.8.5a1 1 0 00-1.6-1.1A1.1 1.1 0 0037 34a1 1 0 001.9-.7zm-10.6 6.1c0-.1 0-.7-.2-.8a9 9 0 01-3 .3 5.4 5.4 0 01-3-1.3c-.2 0-.6.6-.5.8a5 5 0 003 1.4 6.6 6.6 0 003.7-.4zm14.5-1.4a9 9 0 01-2.7 1.5 5.4 5.4 0 01-3.3 0s-.3.7-.1.9a5 5 0 003.3.2 6.6 6.6 0 003.3-1.9c0-.1-.3-.7-.5-.7zM32 46c-1.7 0-1.5-6.1-1.5-6.3s-.8 0-.8 0-.6 7.3 2.4 7.4 2-7.6 2-7.6a2.2 2.2 0 00-.8 0c-.1.2.4 6.5-1.3 6.5zm-8.6.4c-.2 0-1 .6-1.2 1.1a5.3 5.3 0 00-.1 1.8 1.2 1.2 0 00.7.2v-1.4c0-.5.9-1 1-1s-.2-.6-.4-.7zm16.3-.5c-.2 0-.7.6-.7.6a3.3 3.3 0 011.4 1c.5.6 0 1.7 0 1.8s.6 0 .9 0 .3-1-.1-2a2.7 2.7 0 00-1.5-1.4zm-8.5 4c-4.7.1-6.7-1.3-7-1.3s-.3.7-.2.9 2.3 1.3 7 1.4 8-1.6 8.1-1.8a1.9 1.9 0 00-.2-.8 27.7 27.7 0 01-7.7 1.6z" fill="#1d1d1b"/>
</svg>